<svg xmlns="http://www.w3.org/2000/svg" width="2010" height="570" version="1.0">
    <g fill="green" stroke="#000">
        <path
            d="M1691.5 545.9c-12.8-1.3-29.5-4.4-43.9-8.4l-12.4-3.4-11.8-4.7c-30.6-12.1-59-29.7-82.7-51.6l-4.8-4.4-109.2-69.9c-60.1-38.4-113.5-72.7-118.7-76-5.2-3.4-23.4-15.1-40.5-26-17-10.9-33.9-21.7-37.5-24-6.1-4-17.9-11.5-103.5-66.4l-33-21.1-.4 1.1c-.1.5.1 2.2.7 3.7 2.8 7.6 6.5 23.8 8.8 38.7l1.5 10 .6 20.2.6 20.2-1.3 12.8-1.2 12.8-2.8 13.6c-4.9 23.8-12.4 45.2-23.5 66.9l-5.5 10.6-7.8 11.9c-16.7 25.6-40.4 51.1-61.7 66.5-3.3 2.4-6.1 4.7-6.3 5.2-.2.4-.9.8-1.6.8-.7 0-2.1.9-3.1 2s-2.2 2-2.7 2-3 1.4-5.6 3.2c-6.8 4.7-27.2 15-39.7 20.1-9 3.7-28.8 10.4-33 11.3-19.9 3.9-28.6 5.5-36 6.4l-9 1.1-15.5.3-15.5.2-10-.8c-21.9-1.8-39.5-5.4-62.4-13l-15.5-5.2-15.6-7.7-15.6-7.7-14.4-9.7c-8-5.4-14.7-10-15-10.4-.3-.3-4.3-3.8-9-7.8-4.7-3.9-13.3-12-19.1-18l-10.5-10.8-7.9-10.5c-8.5-11.2-13.2-18-15.4-22.3-.8-1.5-1.8-2.7-2.2-2.7-.4 0-1.3-1.6-1.9-3.5l-1.2-3.5h-1.9l.5-.9.6-.9-.7-.4c-.9-.3-3.8-6-8.3-16.2-1.7-3.9-3.7-8.4-4.5-10-1.4-3.1-10.4-29.7-11-32.6-3.1-14.5-5.6-27.9-6.1-31.7-.3-2.6-.7-5.9-.9-7.2-.2-1.4-.7-9.3-1.1-17.5l-.6-15.1 1.1-14.2 1.1-14.1 2-11.4c1.8-10.6 7.4-32.7 9.9-39.2l1.2-2.9-.6-.5-.6-.6-3.2 1.8c-1.8 1.1-5.7 3.5-8.7 5.6-3 2-6.2 3.9-7 4.3-.8.4-2.8 1.6-4.5 2.7-1.6 1.1-3.9 2.4-5 3-1.1.6-3.3 1.9-5 3-1.6 1.1-3.9 2.4-5 3-2.5 1.3-1.5.7-47.4 28.4-21.1 12.7-39.5 23.9-41 24.8-1.4 1-3.5 2.2-4.6 2.8-2.9 1.5-5.9 3.4-6.5 4.2-.3.4-1.7 1.2-3 1.7-1.4.6-3.4 1.7-4.5 2.3-4 2.6-10.1 6.3-12.3 7.5-1.8.9-45.7 27.4-76 45.8-.9.6-3.5 2.2-5.7 3.6s-4.7 2.9-5.5 3.2c-.8.4-2.8 1.6-4.5 2.7-1.6 1.1-3.7 2.3-4.5 2.7-3.8 1.8-31.5 18.8-31.8 19.5-.2.4-.8.8-1.4.8-.5 0-11.4 6.3-24.1 14-29.2 17.7-27.1 16.4-27.7 17.2-.3.4-1.7 1.2-3 1.8-1.4.5-3.8 1.9-5.5 3-1.6 1.1-3.9 2.4-5 3-1.1.6-3.3 1.9-5 3-1.6 1.1-4.6 2.8-6.5 3.9-8.4 4.6-77.6 46.4-78 47.1-.3.5-1.7 1.4-3 2-1.4.5-3.8 1.9-5.5 3-1.6 1.1-3.9 2.4-5 3-1.1.6-3.3 1.9-5 3-1.6 1.1-3.7 2.3-4.5 2.7-3.6 1.7-21.5 12.8-21.8 13.5-.2.4-.9.8-1.6.8-.7 0-2.3.9-3.6 2-1.3 1.1-2.7 2-3.1 2-1.1 0-16 9-17.7 10.7-.7.7-1.8 1.3-2.4 1.3-.5 0-3 1.4-5.5 3-2.4 1.7-4.8 3-5.4 3-.5 0-.9.4-.9.8 0 .5-1 1.4-2.3 2-1.2.6-4.4 2.5-7.2 4.2-2.7 1.6-6.8 3.9-9 5l-4 2H37.4l-4.7-1.6-4.6-1.6-4-3.8-4-3.9-2.3-4.3-2.2-4.3-.1-9v-9l2.7-5.1 2.7-5.2 4.2-3.6c4-3.4 26.4-17.1 32.2-19.7 1.5-.7 2.7-1.6 2.7-2.1 0-.4.5-.8 1.1-.8 1.3 0 16.4-9 22.3-13.2 2.1-1.5 4.5-2.8 5.3-2.8H90v-1.8l2.8-1.1c3-1.2 5.9-2.9 8-4.8.7-.7 1.8-1.3 2.3-1.3 1.2 0 39.3-23.2 39.7-24.2.2-.4.8-.8 1.4-.8 1.3 0 93.2-55.1 93.6-56.2.2-.4.8-.8 1.2-.8.9 0 26.1-14.9 27-15.9.3-.3 2.5-1.7 5-3s6.5-3.7 9-5.2c2.5-1.6 19.8-12 38.5-23.2 45.1-27.1 54.9-33.1 55.3-34 .2-.4.8-.7 1.4-.7 1.3 0 38.2-22.1 38.6-23.2.2-.4.8-.8 1.4-.8.5 0 37.7-22.1 82.6-49.2 44.9-27.1 86.2-51.9 91.7-55.2 5.5-3.3 10.6-6.6 11.3-7.3.7-.7 1.8-1.3 2.3-1.3 1.2 0 11.3-6.2 11.7-7.2.2-.4.8-.8 1.4-.8 1.2 0 22.7-12.8 24.6-14.7.7-.7 1.8-1.3 2.3-1.3.5 0 2.8-1.2 5.2-2.7 2.3-1.5 5.6-3.5 7.2-4.4 1.7-.9 7.7-4.7 13.5-8.3 5.8-3.6 12.4-7.6 14.8-8.8 2.3-1.2 4.2-2.6 4.2-3 0-.4.5-.8 1-.8.6 0 4.9-2.6 9.8-5.9 11.4-7.7 22.6-14 34.2-19.5 8.9-4.2 16.9-7.7 18-8.1.3 0 5.6-1.8 11.9-3.9 15.4-5 28.9-8.2 45.6-10.7l14-2.1 18-.3 18-.3 12 1.4c24 2.6 38.6 5.8 59 13 7.2 2.5 14.8 5 17 5.5 2.2.5 5.8 2 8 3.3 2.2 1.4 8.1 4.7 13 7.4 10.7 5.9 22.4 13.5 31.9 20.6 3.8 2.8 16.7 11.4 28.7 19.1 12.1 7.7 47.9 30.7 79.6 51 31.8 20.4 66.1 42.3 76.3 48.9 10.2 6.5 22.6 14.4 27.5 17.6 5 3.1 21.8 13.9 37.5 24s31.1 19.9 34.2 21.9c3.1 2 30.4 19.4 60.5 38.7 30.1 19.4 70 44.9 88.5 56.8 18.5 11.9 34.2 21.6 34.8 21.6 1.3 0 1.3-.2-.1-3.7-.6-1.5-1.2-3.5-1.4-4.4-.2-.9-1.3-6.1-2.5-11.5-1.2-5.5-2.4-11.7-2.7-13.9-.3-2.2-.8-5.6-1.2-7.5-1.2-5.5-1.6-15.9-1.5-38.5l.1-21 1.7-10.9c.9-5.9 2.8-15.8 4.1-21.9l2.5-11.1 4.4-13c9.4-28.1 23.5-54.2 42.5-78.6l6.6-8.5 11.5-11.9 11.5-11.8 11-8.8c10.3-8.2 25.9-19.1 33.6-23.4 1.9-1.1 10.2-5.2 18.4-9.2l15-7.2 11.6-4c13.8-4.8 32.4-9.5 46.9-11.7l10.5-1.7 22.5-.5 22.6-.5 13.4 1.6c40 5.1 74.7 17.2 106.8 37.4 24 15.1 45.3 33.6 62.2 54.2 9.3 11.2 9.2 11.1 14 18 2.4 3.6 4.8 6.6 5.2 6.8.4.2.8.9.8 1.6 0 .6 1.2 2.9 2.7 5.1 4.1 6.1 13.1 23.7 17.7 34.9 9.2 22 15 42.6 18.3 65.1l1.7 12v49l-1.2 8c-7.7 48.4-21.2 82.2-48.2 120.5-9.7 13.7-29.6 34.8-44 46.5-13.3 10.9-15.7 12.6-28.8 20.8l-12.4 7.8-10.1 4.8c-15.8 7.6-18.7 8.8-29.8 12.5-18.3 6.1-23.1 7.4-37.9 10l-14.5 2.6-11.5 1-11.5 1-13.5-.1c-7.4-.1-17.5-.6-22.5-1zm54.5-63.5 10.5-1.6 11.5-2.9 11.4-3 1.3-1.1c.7-.6 1.3-.8 1.3-.5 0 2.7 42.5-18.2 43.8-21.5.2-.4.8-.8 1.4-.8.5 0 5.2-3.1 10.3-7l9.3-7 10.2-10.2 10.3-10.3 7.1-9.5c21.7-28.8 33.7-57.7 39.2-94l1.7-11.5v-33l-1.7-10c-2.9-18.2-4.3-23.9-8.8-37-3.7-10.8-12.5-29.8-16.5-35.8-1.6-2.3-3.2-4.9-3.5-5.8-.3-.8-4.1-6.2-8.4-12l-7.9-10.4-11-11-11-11.1-8-6c-27-20.4-55.6-32.8-89-38.5l-12-2-15-.6-15-.5-15.5 2.1-15.5 2.1-9 2.4c-12.8 3.5-22.7 7.1-32.5 11.8-4.7 2.3-8.8 4.1-9.2 4-.5-.1-.8.2-.8.7v.9l-2.7 1c-14.2 4.9-46.8 32.7-60.8 51.7-3.1 4.2-4.3 5.8-6 7.8-2.7 3-12.6 20-16 27.2-9.1 19.5-14.1 35.7-17.6 57l-2.2 13v33l1.7 11 1.7 11 3.4 13c1.9 7.2 3.9 14.4 4.6 16 .7 1.7 1.3 3.2 1.4 3.5 1 3.1 1.9 5.3 3.9 9.5 1.2 2.8 3.1 6.8 4 9 4.6 10.3 18.8 31.4 28.4 41.7 36.8 40.1 81.5 62.3 134.2 66.8l9.5.8 11.5-.4 11.5-.5 10.5-1.5zM866 468c3.6-.6 8.8-1.3 11.5-1.6 12.8-1.4 39.8-10.1 54.9-17.6 18.4-9.2 39.2-24.1 51.6-36.9 31.4-32.5 48.9-66.8 56.1-110.4l2.2-13 .1-15 .1-15-.8-7.4c-1.3-13.4-5-32.4-7.4-38.1-.3-.8-.7-1.7-.8-2-.1-.3-.4-1.2-.8-2-.3-.8-1.3-4-2.2-7-1-3-2.8-7.5-4-10-1.2-2.5-3.9-7.9-5.8-12l-3.6-7.5-6.8-10.2c-31.8-47.5-76.1-76.2-133.8-86.9l-9-1.7-20.5-.3-20.5-.3-5.5 1c-3 .5-7.5 1.2-10 1.5-10.3 1.3-36.3 9-44.2 13-1.5.8-3 1.4-3.3 1.4-.3 0-3.7 1.7-7.7 3.7-10.2 5-21.8 12.4-31.8 20.2l-8.5 6.5-11 11.1-11.1 11-6 8c-20.7 27.7-32.7 56.3-38.4 91.5l-2 12.5v16.2l-.1 16.1 2 12.9 2 12.8 3.6 12.8c1.9 7.1 4.2 14.5 5.1 16.5.9 2.1 2 4.6 2.4 5.7.5 1.1 2.5 5.7 4.6 10.3l3.7 8.2H672v1.4c0 .8.6 2.1 1.3 2.8.7.7 1.8 2.6 2.6 4.3.7 1.6 4.7 7.7 8.9 13.5l7.7 10.5 11.5 11.6 11.5 11.5 8.3 6.3c21.6 16.4 44.2 27.4 70.8 34.7l9.4 2.5 12.3 1.9 12.2 1.8 15.5.1 15.5.1 6.5-1z" />
        <path
            d="M1689 330.3c-4.7-4.2-11.1-9.9-14.2-12.7l-5.7-5.1-2.8-18.6-2.9-18.6 9.7-15.8 9.6-15.8 9.4-3.4c5.2-1.9 13.4-4.7 18.2-6.2l8.8-2.9 17.2 6.7 17.2 6.7 7.6 13.9c4.3 7.7 8.1 14.5 8.6 15 .5.6 1.2 1.9 1.6 2.9l.8 1.9-3.6 18.1-3.6 18.1-2.7 2.3c-1.5 1.2-4 3.3-5.5 4.5-1.6 1.2-6.7 5.4-11.5 9.4l-8.7 7.2h-39l-8.5-7.6zm38.5-31.7 4.1-3.4 1.1-5.8 1-5.8-2.7-5-2.8-4.9-5.2-2-5.3-2-5.3 1.7-5.3 1.7-3 4.9-3 4.9.9 5.8 1 5.8 4.2 3.7 4.3 3.7 5.9.1h5.9l4.2-3.4zM828 322.3l-3.5-.5-4.2-3.4c-2.3-1.9-4.8-4-5.5-4.7-.7-.7-5.2-4.6-9.8-8.8l-8.5-7.6-1.7-10.4c-1-5.7-2.3-14.1-2.9-18.6l-1.2-8.3 9.5-15.7 9.6-15.8 6.4-2.3c3.4-1.2 7-2.5 7.8-2.9.8-.3 1.7-.7 2-.8.3 0 4.9-1.6 10.3-3.4l9.7-3.3 17.3 6.7 17.2 6.6 1.9 3.2c1 1.8 3.2 5.7 4.8 8.7 1.7 3 3.8 6.6 4.7 8 .9 1.4 3 5.2 4.5 8.4l2.8 5.9-3.6 18.1-3.6 18.1-1.9 1.5c-1.1.8-3.4 2.6-5.1 4-1.8 1.4-4.9 3.9-6.9 5.6-2 1.6-6.2 5.1-9.4 7.7l-5.9 4.7-15.6-.2c-8.7 0-17.3-.3-19.2-.5zm26.5-38.8 4.2-3.5 1.2-6 1.2-6.1-2.3-4.2-2.3-4.2-4.5-2.2-4.4-2.3h-2.7c-1.5 0-4 .5-5.6 1.2-1.5.6-3.1 1-3.6 1-.4-.1-2.1 1.9-3.8 4.5l-3 4.8.5 6 .5 6 4.5 4.3 4.5 4.2h11.3l4.3-3.5z" />
    </g>
</svg>