<svg aria-hidden="true" id="icon-logo" style="position: absolute; width: 0; height: 0; overflow: hidden;" version="1.1"
    xmlns="http://www.w3.org/2000/svg" xmlns:xlink="http://www.w3.org/1999/xlink">
    <defs>
        <symbol viewBox="0 0 113 32">
            <path fill="#008000" style="fill: var(--color1, #008000)"
                d="M94.961 30.647c-0.719-0.073-1.656-0.247-2.465-0.472l-0.696-0.191-0.662-0.264c-1.718-0.679-3.312-1.667-4.643-2.897l-0.269-0.247-6.131-3.924c-3.374-2.156-6.372-4.081-6.664-4.267-0.292-0.191-1.314-0.848-2.274-1.46-0.954-0.612-1.903-1.218-2.105-1.347-0.342-0.225-1.005-0.646-5.811-3.728l-1.853-1.185-0.022 0.062c-0.006 0.028 0.006 0.123 0.039 0.208 0.157 0.427 0.365 1.336 0.494 2.173l0.084 0.561 0.067 2.268-0.073 0.719-0.067 0.719-0.157 0.764c-0.275 1.336-0.696 2.538-1.319 3.756l-0.309 0.595-0.438 0.668c-0.938 1.437-2.268 2.869-3.464 3.733-0.185 0.135-0.342 0.264-0.354 0.292-0.011 0.022-0.051 0.045-0.090 0.045s-0.118 0.051-0.174 0.112-0.123 0.112-0.152 0.112-0.168 0.079-0.314 0.18c-0.382 0.264-1.527 0.842-2.229 1.128-0.505 0.208-1.617 0.584-1.853 0.634-1.117 0.219-1.606 0.309-2.021 0.359l-0.505 0.062-0.87 0.017-0.87 0.011-0.561-0.045c-1.229-0.101-2.218-0.303-3.503-0.73l-0.87-0.292-1.752-0.865-0.808-0.545c-0.449-0.303-0.825-0.561-0.842-0.584-0.017-0.017-0.241-0.213-0.505-0.438-0.264-0.219-0.747-0.674-1.072-1.011l-0.589-0.606-0.444-0.589c-0.477-0.629-0.741-1.011-0.865-1.252-0.045-0.084-0.101-0.152-0.123-0.152s-0.073-0.090-0.107-0.197l-0.067-0.197h-0.107l0.028-0.051 0.034-0.051-0.039-0.022c-0.051-0.017-0.213-0.337-0.466-0.909-0.095-0.219-0.208-0.472-0.253-0.561-0.079-0.174-0.584-1.667-0.618-1.83-0.174-0.814-0.314-1.566-0.342-1.78-0.017-0.146-0.039-0.331-0.051-0.404-0.011-0.079-0.039-0.522-0.062-0.982l-0.034-0.848 0.062-0.797 0.062-0.792 0.112-0.64c0.101-0.595 0.415-1.836 0.556-2.201l0.067-0.163-0.034-0.028-0.034-0.034-0.18 0.101c-0.101 0.062-0.32 0.197-0.488 0.314-0.168 0.112-0.348 0.219-0.393 0.241s-0.157 0.090-0.253 0.152c-0.090 0.062-0.219 0.135-0.281 0.168s-0.185 0.107-0.281 0.168c-0.090 0.062-0.219 0.135-0.281 0.168-0.14 0.073-0.084 0.039-2.661 1.594-1.185 0.713-2.218 1.342-2.302 1.392-0.079 0.056-0.197 0.123-0.258 0.157-0.163 0.084-0.331 0.191-0.365 0.236-0.017 0.022-0.095 0.067-0.168 0.095-0.079 0.034-0.191 0.095-0.253 0.129-0.225 0.146-0.567 0.354-0.691 0.421-0.101 0.051-2.566 1.538-4.267 2.571-0.051 0.034-0.197 0.123-0.32 0.202s-0.264 0.163-0.309 0.18c-0.045 0.022-0.157 0.090-0.253 0.152-0.090 0.062-0.208 0.129-0.253 0.152-0.213 0.101-1.768 1.055-1.785 1.095-0.011 0.022-0.045 0.045-0.079 0.045-0.028 0-0.64 0.354-1.353 0.786-1.639 0.994-1.521 0.921-1.555 0.966-0.017 0.022-0.095 0.067-0.168 0.101-0.079 0.028-0.213 0.107-0.309 0.168-0.090 0.062-0.219 0.135-0.281 0.168s-0.185 0.107-0.281 0.168c-0.090 0.062-0.258 0.157-0.365 0.219-0.472 0.258-4.357 2.605-4.379 2.644-0.017 0.028-0.095 0.079-0.168 0.112-0.079 0.028-0.213 0.107-0.309 0.168-0.090 0.062-0.219 0.135-0.281 0.168s-0.185 0.107-0.281 0.168c-0.090 0.062-0.208 0.129-0.253 0.152-0.202 0.095-1.207 0.719-1.224 0.758-0.011 0.022-0.051 0.045-0.090 0.045s-0.129 0.051-0.202 0.112c-0.073 0.062-0.152 0.112-0.174 0.112-0.062 0-0.898 0.505-0.994 0.601-0.039 0.039-0.101 0.073-0.135 0.073-0.028 0-0.168 0.079-0.309 0.168-0.135 0.095-0.269 0.168-0.303 0.168-0.028 0-0.051 0.022-0.051 0.045 0 0.028-0.056 0.079-0.129 0.112-0.067 0.034-0.247 0.14-0.404 0.236-0.152 0.090-0.382 0.219-0.505 0.281l-0.225 0.112h-0.623l-0.264-0.090-0.258-0.090-0.225-0.213-0.225-0.219-0.129-0.241-0.123-0.241-0.006-0.505v-0.505l0.152-0.286 0.152-0.292 0.236-0.202c0.225-0.191 1.482-0.96 1.808-1.106 0.084-0.039 0.152-0.090 0.152-0.118 0-0.022 0.028-0.045 0.062-0.045 0.073 0 0.921-0.505 1.252-0.741 0.118-0.084 0.253-0.157 0.298-0.157h0.073v-0.101l0.157-0.062c0.168-0.067 0.331-0.163 0.449-0.269 0.039-0.039 0.101-0.073 0.129-0.073 0.067 0 2.206-1.302 2.229-1.359 0.011-0.022 0.045-0.045 0.079-0.045 0.073 0 5.232-3.093 5.255-3.155 0.011-0.022 0.045-0.045 0.067-0.045 0.051 0 1.465-0.837 1.516-0.893 0.017-0.017 0.14-0.095 0.281-0.168s0.365-0.208 0.505-0.292c0.14-0.090 1.112-0.674 2.161-1.302 2.532-1.521 3.082-1.858 3.105-1.909 0.011-0.022 0.045-0.039 0.079-0.039 0.073 0 2.145-1.241 2.167-1.302 0.011-0.022 0.045-0.045 0.079-0.045 0.028 0 2.116-1.241 4.637-2.762s4.839-2.914 5.148-3.099c0.309-0.185 0.595-0.371 0.634-0.41s0.101-0.073 0.129-0.073c0.067 0 0.634-0.348 0.657-0.404 0.011-0.022 0.045-0.045 0.079-0.045 0.067 0 1.274-0.719 1.381-0.825 0.039-0.039 0.101-0.073 0.129-0.073s0.157-0.067 0.292-0.152c0.129-0.084 0.314-0.197 0.404-0.247 0.095-0.051 0.432-0.264 0.758-0.466s0.696-0.427 0.831-0.494c0.129-0.067 0.236-0.146 0.236-0.168s0.028-0.045 0.056-0.045c0.034 0 0.275-0.146 0.55-0.331 0.64-0.432 1.269-0.786 1.92-1.095 0.5-0.236 0.949-0.432 1.011-0.455 0.017 0 0.314-0.101 0.668-0.219 0.865-0.281 1.622-0.46 2.56-0.601l0.786-0.118 2.021-0.034 0.674 0.079c1.347 0.146 2.167 0.326 3.312 0.73 0.404 0.14 0.831 0.281 0.954 0.309s0.326 0.112 0.449 0.185c0.123 0.079 0.455 0.264 0.73 0.415 0.601 0.331 1.258 0.758 1.791 1.156 0.213 0.157 0.938 0.64 1.611 1.072 0.679 0.432 2.689 1.723 4.469 2.863 1.785 1.145 3.711 2.375 4.283 2.745 0.573 0.365 1.269 0.808 1.544 0.988 0.281 0.174 1.224 0.78 2.105 1.347s1.746 1.117 1.92 1.229c0.174 0.112 1.707 1.089 3.397 2.173 1.69 1.089 3.93 2.521 4.968 3.189s1.92 1.213 1.954 1.213c0.073 0 0.073-0.011-0.006-0.208-0.034-0.084-0.067-0.197-0.079-0.247s-0.073-0.342-0.14-0.646c-0.067-0.309-0.135-0.657-0.152-0.78s-0.045-0.314-0.067-0.421c-0.067-0.309-0.090-0.893-0.084-2.161l0.006-1.179 0.095-0.612c0.051-0.331 0.157-0.887 0.23-1.229l0.14-0.623 0.247-0.73c0.528-1.578 1.319-3.043 2.386-4.413l0.371-0.477 0.646-0.668 0.646-0.662 0.618-0.494c0.578-0.46 1.454-1.072 1.886-1.314 0.107-0.062 0.573-0.292 1.033-0.517l0.842-0.404 0.651-0.225c0.775-0.269 1.819-0.533 2.633-0.657l0.589-0.095 2.532-0.056 0.752 0.090c2.246 0.286 4.194 0.966 5.996 2.1 1.347 0.848 2.543 1.886 3.492 3.043 0.522 0.629 0.516 0.623 0.786 1.011 0.135 0.202 0.269 0.371 0.292 0.382s0.045 0.051 0.045 0.090c0 0.034 0.067 0.163 0.152 0.286 0.23 0.342 0.735 1.331 0.994 1.959 0.516 1.235 0.842 2.392 1.027 3.655l0.095 0.674v2.751l-0.067 0.449c-0.432 2.717-1.19 4.615-2.706 6.765-0.545 0.769-1.662 1.954-2.47 2.611-0.747 0.612-0.881 0.707-1.617 1.168l-0.696 0.438-0.567 0.269c-0.887 0.427-1.050 0.494-1.673 0.702-1.027 0.342-1.297 0.415-2.128 0.561l-0.814 0.146-1.291 0.112-0.758-0.006c-0.415-0.006-0.982-0.034-1.263-0.056zM98.021 27.082l0.589-0.090 0.646-0.163 0.64-0.168 0.073-0.062c0.039-0.034 0.073-0.045 0.073-0.028 0 0.152 2.386-1.022 2.459-1.207 0.011-0.022 0.045-0.045 0.079-0.045 0.028 0 0.292-0.174 0.578-0.393l0.522-0.393 1.151-1.151 0.399-0.533c1.218-1.617 1.892-3.239 2.201-5.277l0.095-0.646v-1.853l-0.095-0.561c-0.163-1.022-0.241-1.342-0.494-2.077-0.208-0.606-0.702-1.673-0.926-2.010-0.090-0.129-0.18-0.275-0.197-0.326-0.017-0.045-0.23-0.348-0.472-0.674l-0.444-0.584-0.618-0.618-0.618-0.623-0.449-0.337c-1.516-1.145-3.121-1.841-4.996-2.161l-0.674-0.112-0.842-0.034-0.842-0.028-1.74 0.236-0.505 0.135c-0.719 0.197-1.274 0.399-1.825 0.662-0.264 0.129-0.494 0.23-0.516 0.225-0.028-0.006-0.045 0.011-0.045 0.039v0.051l-0.152 0.056c-0.797 0.275-2.627 1.836-3.413 2.902-0.174 0.236-0.241 0.326-0.337 0.438-0.152 0.168-0.707 1.123-0.898 1.527-0.511 1.095-0.792 2.004-0.988 3.2l-0.124 0.73v1.853l0.191 1.235 0.191 0.73c0.107 0.404 0.219 0.808 0.258 0.898 0.039 0.095 0.073 0.18 0.079 0.197 0.056 0.174 0.107 0.298 0.219 0.533 0.067 0.157 0.174 0.382 0.225 0.505 0.258 0.578 1.055 1.763 1.594 2.341 2.066 2.251 4.575 3.498 7.534 3.75l0.533 0.045 0.646-0.022 0.646-0.028 0.589-0.084zM48.618 26.274c0.202-0.034 0.494-0.073 0.646-0.090 0.719-0.079 2.234-0.567 3.082-0.988 1.033-0.517 2.201-1.353 2.897-2.072 1.763-1.825 2.745-3.75 3.149-6.198l0.123-0.73 0.011-1.684-0.045-0.415c-0.073-0.752-0.281-1.819-0.415-2.139-0.017-0.045-0.039-0.095-0.045-0.112s-0.022-0.067-0.045-0.112c-0.017-0.045-0.073-0.225-0.123-0.393-0.056-0.168-0.157-0.421-0.225-0.561s-0.219-0.444-0.326-0.674l-0.202-0.421-0.382-0.573c-1.785-2.667-4.272-4.278-7.512-4.879l-0.505-0.095-2.302-0.034-0.309 0.056c-0.168 0.028-0.421 0.067-0.561 0.084-0.578 0.073-2.038 0.505-2.481 0.73-0.084 0.045-0.168 0.079-0.185 0.079s-0.208 0.095-0.432 0.208c-0.573 0.281-1.224 0.696-1.785 1.134l-0.477 0.365-0.618 0.623-0.623 0.618-0.337 0.449c-1.162 1.555-1.836 3.161-2.156 5.137l-0.112 0.702v0.909l-0.006 0.904 0.112 0.724 0.112 0.719 0.202 0.719c0.107 0.399 0.236 0.814 0.286 0.926 0.051 0.118 0.112 0.258 0.135 0.32 0.028 0.062 0.14 0.32 0.258 0.578l0.208 0.46h0.095v0.079c0 0.045 0.034 0.118 0.073 0.157s0.101 0.146 0.146 0.241c0.039 0.090 0.264 0.432 0.5 0.758l0.432 0.589 0.646 0.651 0.646 0.646 0.466 0.354c1.213 0.921 2.481 1.538 3.975 1.948l0.528 0.14 0.691 0.107 0.685 0.101 1.74 0.011 0.365-0.056z">
            </path>
            <path fill="#008000" style="fill: var(--color1, #008000)"
                d="M94.821 18.543c-0.264-0.236-0.623-0.556-0.797-0.713l-0.32-0.286-0.157-1.044-0.163-1.044 0.545-0.887 0.539-0.887 0.528-0.191c0.292-0.107 0.752-0.264 1.022-0.348l0.494-0.163 1.931 0.752 0.427 0.78c0.241 0.432 0.455 0.814 0.483 0.842 0.028 0.034 0.067 0.107 0.090 0.163l0.045 0.107-0.404 2.032-0.152 0.129c-0.084 0.067-0.225 0.185-0.309 0.253-0.090 0.067-0.376 0.303-0.646 0.528l-0.488 0.404h-2.189l-0.477-0.427zM96.982 16.764l0.23-0.191 0.062-0.326 0.056-0.326-0.152-0.281-0.157-0.275-0.292-0.112-0.298-0.112-0.595 0.191-0.337 0.55 0.051 0.326 0.056 0.326 0.236 0.208 0.241 0.208 0.331 0.006h0.331l0.236-0.191zM46.484 18.094l-0.197-0.028-0.236-0.191c-0.129-0.107-0.269-0.225-0.309-0.264s-0.292-0.258-0.55-0.494l-0.477-0.427-0.095-0.584c-0.056-0.32-0.129-0.792-0.163-1.044l-0.067-0.466 0.533-0.881 0.539-0.887 0.359-0.129c0.191-0.067 0.393-0.14 0.438-0.163 0.045-0.017 0.095-0.039 0.112-0.045 0.017 0 0.275-0.090 0.578-0.191l0.545-0.185 0.971 0.376 0.966 0.371 0.107 0.18c0.056 0.101 0.18 0.32 0.269 0.488 0.095 0.168 0.213 0.371 0.264 0.449s0.168 0.292 0.253 0.472l0.157 0.331-0.404 2.032-0.107 0.084c-0.062 0.045-0.191 0.146-0.286 0.225-0.101 0.079-0.275 0.219-0.387 0.314-0.112 0.090-0.348 0.286-0.528 0.432l-0.331 0.264-0.876-0.011c-0.488 0-0.971-0.017-1.078-0.028zM47.972 15.916l0.236-0.197 0.067-0.337 0.067-0.342-0.258-0.472-0.253-0.123-0.247-0.129h-0.152c-0.084 0-0.225 0.028-0.314 0.067-0.084 0.034-0.174 0.056-0.202 0.056-0.022-0.006-0.118 0.107-0.213 0.253l-0.168 0.269 0.056 0.674 0.253 0.241 0.253 0.236h0.634l0.241-0.197z">
            </path>
        </symbol>
    </defs>
</svg>